<svg width="10" height="6" viewBox="0 0 10 6" fill="none" xmlns="http://www.w3.org/2000/svg">
<path d="M5.00187 4.19985L1.63147 0.829448L1.63147 0.82944C1.45269 0.650687 1.16285 0.650687 0.984066 0.82944L0.984035 0.829472C0.805326 1.00826 0.805315 1.29807 0.984043 1.47685L0.984059 1.47686L4.67816 5.17097L4.67818 5.17099C4.85695 5.34971 5.14678 5.34971 5.32556 5.17099L5.32557 5.17097L9.01968 1.47686L9.01969 1.47688L9.02151 1.475C9.19717 1.29312 9.19212 1.00328 9.01024 0.827617L9.01023 0.827612C8.83281 0.656278 8.55153 0.656267 8.37412 0.82762L8.3741 0.827603L8.37226 0.829447L5.00187 4.19985Z" fill="#50CAFF" stroke="#50CAFF" stroke-width="0.3"/>
</svg>
